<svg width="820" height="250" viewBox="0 0 820 250" xmlns="http://www.w3.org/2000/svg">
  <defs>
    <linearGradient id="bg" x1="0" y1="0" x2="1" y2="1"><stop stop-color="#071421"/><stop offset="1" stop-color="#090812"/></linearGradient>
    <linearGradient id="line" x1="0" y1="0" x2="1" y2="0"><stop stop-color="#1e8fff"/><stop offset="1" stop-color="#00e5ff"/></linearGradient>
    <pattern id="grid" width="32" height="32" patternUnits="userSpaceOnUse"><path d="M32 0H0V32" fill="none" stroke="#1e8fff" stroke-opacity=".1"/></pattern>
    <pattern id="scan" width="4" height="4" patternUnits="userSpaceOnUse"><path d="M0 1H4" stroke="#fff" stroke-opacity=".035"/></pattern>
    <filter id="glow" x="-40%" y="-60%" width="180%" height="220%"><feGaussianBlur stdDeviation="3" result="b"/><feMerge><feMergeNode in="b"/><feMergeNode in="SourceGraphic"/></feMerge></filter>
    <style>.mono{font-family:'Fira Code','JetBrains Mono',Consolas,monospace}.sans{font-family:Inter,Arial,sans-serif}</style>
  </defs>
  <rect width="820" height="250" rx="10" fill="url(#bg)"/><rect width="820" height="250" rx="10" fill="url(#grid)"/><rect width="820" height="250" rx="10" fill="url(#scan)"/>
  <text x="24" y="28" class="mono" font-size="10" font-weight="700" letter-spacing="2" fill="#00e5ff">01 / IDENTITY</text>
  <path d="M24 43H796" stroke="url(#line)" stroke-opacity=".35"/>
  <rect x="24" y="61" width="475" height="160" fill="#0b1119" fill-opacity=".92" stroke="#1e8fff" stroke-opacity=".4"/><path d="M24 86V61H58M465 221H499V196" fill="none" stroke="#00e5ff" stroke-width="2" filter="url(#glow)"/>
  <text x="43" y="83" class="mono" font-size="8" letter-spacing="1.4" fill="#63778c">PROFILE_ID // NT-0710</text><text x="478" y="83" text-anchor="end" class="mono" font-size="8" fill="#00e5ff">● ONLINE</text>
  <rect x="43" y="101" width="62" height="62" fill="#0d2741" stroke="#1e8fff"/><text x="74" y="140" text-anchor="middle" class="mono" font-size="22" font-weight="700" fill="#1e8fff">NT</text>
  <text x="124" y="119" class="sans" font-size="21" font-weight="800" fill="#f0f7ff">Nguyễn Nhật Tiến</text><text x="124" y="140" class="mono" font-size="9" font-weight="700" letter-spacing="1" fill="#00e5ff">AI ENGINEER / FULL-STACK DEVELOPER</text>
  <text x="43" y="185" class="sans" font-size="11" fill="#c6d9ea">Computer Science student focused on applied AI, Agentic RAG,</text><text x="43" y="202" class="sans" font-size="11" fill="#c6d9ea">computer vision, text-to-3D, and user-facing software systems.</text>

  <rect x="519" y="61" width="277" height="160" fill="#0b1119" fill-opacity=".92" stroke="#1e8fff" stroke-opacity=".4"/><path d="M519 86V61H553M762 221H796V196" fill="none" stroke="#00e5ff" stroke-width="2" filter="url(#glow)"/>
  <rect x="519" y="61" width="277" height="28" fill="#131c27"/><circle cx="536" cy="75" r="3.5" fill="#ff5f56"/><circle cx="548" cy="75" r="3.5" fill="#ffbd2e"/><circle cx="560" cy="75" r="3.5" fill="#27c93f"/><text x="575" y="79" class="mono" font-size="8" fill="#63778c">career_objective.txt</text>
  <text x="539" y="112" class="mono" font-size="9" font-weight="700" fill="#1e8fff">$ cat objective</text><text x="539" y="133" class="sans" font-size="11" fill="#c6d9ea">Seeking an AI Engineer or Software</text><text x="539" y="150" class="sans" font-size="11" fill="#c6d9ea">Engineer internship to build reliable AI.</text><path d="M539 164H776" stroke="#1e8fff" stroke-opacity=".25" stroke-dasharray="2 4"/><text x="539" y="183" class="mono" font-size="8" letter-spacing="1" fill="#63778c">SPECIALTIES</text><text x="539" y="202" class="mono" font-size="9" fill="#00e5ff">AGENTIC RAG · LLM · TEXT-TO-3D · CV</text>
</svg>
